<?xml version="1.0" encoding="utf-8"?>
<!-- Generator: Adobe Illustrator 15.1.0, SVG Export Plug-In  -->
<!DOCTYPE svg PUBLIC "-//W3C//DTD SVG 1.1//EN" "http://www.w3.org/Graphics/SVG/1.1/DTD/svg11.dtd" [
        <!ENTITY ns_flows "http://ns.adobe.com/Flows/1.0/">
        ]>
<svg version="1.1"
	 xmlns="http://www.w3.org/2000/svg" xmlns:xlink="http://www.w3.org/1999/xlink" xmlns:a="http://ns.adobe.com/AdobeSVGViewerExtensions/3.0/"
	 x="0px" y="0px" width="150px" height="46px" viewBox="0 -0.02 150 46" overflow="visible" enable-background="new 0 -0.02 150 46"
	 xml:space="preserve">
<defs>
</defs>
<path fill="#0268AD" d="M132.09,11.67h2.73l0.04,1.14c0.25-0.31,1.28-1.48,3.14-1.48c3,0,4.65,1.86,4.65,5.1v7.55h-2.84v-7.45
	c0-1.67-1.02-2.62-2.45-2.62c-1.42,0-2.44,0.96-2.44,2.62v7.45h-2.84V11.67z M108.12,23.97h-2.84V6.1h2.84V23.97z M114.19,23.97
	h-2.84v-12.3h2.84V23.97z M112.77,5.8c-0.98,0-1.78,0.8-1.78,1.78c0,0.98,0.79,1.78,1.78,1.78c0.98,0,1.78-0.8,1.78-1.78
	C114.55,6.6,113.75,5.8,112.77,5.8 M99.24,11.67h2.81v12.3h-2.81l-0.04-1.29c-0.52,0.53-1.89,1.64-3.81,1.64
	c-3.35,0-5.84-2.7-5.84-6.5c0-4.02,2.69-6.49,5.84-6.49c2.21,0,3.45,1.2,3.81,1.64L99.24,11.67z M92.45,17.82
	c0,2.36,1.45,3.93,3.46,3.93c1.82,0,3.46-1.33,3.46-3.93c0-2.53-1.57-3.93-3.46-3.93C93.82,13.89,92.45,15.56,92.45,17.82
	 M126.17,17.82c0-2.56-1.62-3.93-3.45-3.93c-2.2,0-3.46,1.79-3.46,3.93c0,2.26,1.37,3.93,3.46,3.93
	C124.65,21.75,126.17,20.32,126.17,17.82 M128.85,22.76c0,5.28-3.09,7.03-6.72,7.03c-2.42,0-3.89-0.73-4.4-0.97l0.7-2.44
	c0.32,0.17,1.65,0.96,3.67,0.96c2.12,0,3.91-1.36,3.91-3.8v-0.85c-0.23,0.24-1.43,1.65-3.84,1.65c-3.31,0-5.82-2.67-5.82-6.5
	c0-3.67,2.36-6.49,5.83-6.49c2.37,0,3.57,1.34,3.82,1.64l0.04-1.29h2.82V22.76z"/>
<path fill="#2DABE2" d="M63.77,11.67l3.18,7.4l3.17-7.4h3.15l-6.35,13.15l-6.29-13.15H63.77z M79.69,21.15
	c0.69,0.43,2.05,0.92,3.18,0.92c1.38,0,2.04-0.59,2.04-1.41c0-0.84-0.51-1.3-2.05-1.87c-2.43-0.82-3.39-2.09-3.39-3.57
	c0-2.2,1.73-3.89,4.63-3.89c1.38,0,2.59,0.33,3.33,0.74l-0.63,2.2c-0.52-0.31-1.55-0.72-2.64-0.72c-1.13,0-1.8,0.56-1.8,1.33
	c0,0.79,0.59,1.2,2.18,1.79c2.28,0.79,3.27,1.93,3.29,3.77c0,2.27-1.68,3.87-4.98,3.87c-1.51,0-2.87-0.36-3.79-0.87L79.69,21.15z
	 M46.26,23.97h-2.84v-12.3h2.84V23.97z M44.84,5.8c-0.99,0-1.78,0.8-1.78,1.78c0,0.98,0.8,1.78,1.78,1.78c0.98,0,1.78-0.8,1.78-1.78
	C46.62,6.6,45.82,5.8,44.84,5.8 M77.14,23.97H74.3v-12.3h2.84V23.97z M75.72,5.8c-0.99,0-1.79,0.8-1.79,1.78
	c0,0.98,0.8,1.78,1.79,1.78c0.98,0,1.78-0.8,1.78-1.78C77.5,6.6,76.7,5.8,75.72,5.8 M49.48,11.67h2.74l0.05,1.14
	c0.25-0.31,1.23-1.48,3.18-1.48c2.75,0,4.61,1.86,4.61,5.1v7.54h-2.84v-7.41c0-1.58-1.02-2.66-2.44-2.66
	c-1.42,0-2.44,1.06-2.44,2.66v7.41h-2.85V11.67z"/>
<path fill="#2DABE2" d="M21.71,10.97c1.24,0.71,2.27,1.74,2.97,2.98c-2.26,1.38-4.32,1.35-4.32,1.35S20.33,13.24,21.71,10.97
	 M24.68,21.7c-2.26-1.38-4.32-1.34-4.32-1.34s-0.04,2.05,1.34,4.32C22.95,23.97,23.97,22.94,24.68,21.7 M21.41,17.82
	c0,0,1.43,1.48,4,2.1c0.19-0.67,0.29-1.38,0.29-2.1c0-0.73-0.1-1.43-0.29-2.1C22.84,16.35,21.41,17.82,21.41,17.82 M14.25,17.82
	c0,0-1.43-1.48-4.01-2.1c-0.19,0.67-0.28,1.37-0.28,2.1c0,0.73,0.1,1.43,0.28,2.1C12.81,19.3,14.25,17.82,14.25,17.82 M15.3,20.36
	c0,0-2.06-0.03-4.32,1.34c0.7,1.24,1.73,2.27,2.97,2.98C15.33,22.41,15.3,20.36,15.3,20.36 M15.3,15.29c0,0,0.03-2.05-1.35-4.32
	c-1.24,0.71-2.27,1.74-2.97,2.98C13.24,15.32,15.3,15.29,15.3,15.29 M17.83,21.41c0,0-1.48,1.43-2.11,4
	c0.67,0.19,1.37,0.29,2.11,0.29c0.73,0,1.43-0.1,2.1-0.29C19.3,22.84,17.83,21.41,17.83,21.41 M17.83,14.24c0,0,1.47-1.43,2.1-4.01
	c-0.67-0.19-1.37-0.29-2.1-0.29c-0.73,0-1.43,0.1-2.11,0.29C16.35,12.81,17.83,14.24,17.83,14.24"/>
<path fill="#0268AD" d="M24.86,7.74c2.61-1.78,5.58-2.52,5.58-2.52s-0.74,2.96-2.52,5.57C27.09,9.6,26.05,8.57,24.86,7.74
	 M19.99,5.72C19.4,2.62,17.83,0,17.83,0s-1.58,2.62-2.17,5.72c0.71-0.12,1.43-0.19,2.17-0.19C18.57,5.53,19.29,5.6,19.99,5.72
	 M24.86,27.91c2.61,1.79,5.58,2.52,5.58,2.52s-0.74-2.96-2.52-5.58C27.09,26.04,26.05,27.08,24.86,27.91 M5.73,15.67
	C2.62,16.25,0,17.82,0,17.82s2.62,1.57,5.73,2.16c-0.13-0.7-0.19-1.42-0.19-2.16C5.53,17.09,5.6,16.37,5.73,15.67 M29.93,19.98
	c3.11-0.58,5.72-2.16,5.72-2.16s-2.62-1.57-5.72-2.16c0.13,0.7,0.19,1.42,0.19,2.16C30.12,18.56,30.06,19.29,29.93,19.98 M10.8,7.74
	C8.19,5.96,5.23,5.22,5.23,5.22s0.73,2.96,2.52,5.58C8.57,9.6,9.61,8.57,10.8,7.74 M15.66,29.93c0.59,3.1,2.17,5.72,2.17,5.72
	s1.57-2.62,2.16-5.72c-0.7,0.12-1.42,0.19-2.16,0.19C17.09,30.12,16.37,30.05,15.66,29.93 M7.74,24.85
	c-1.78,2.61-2.52,5.58-2.52,5.58s2.96-0.74,5.57-2.52C9.61,27.08,8.57,26.04,7.74,24.85"/>
<path fill="#0A82C5" d="M20.2,27.74c0,0.74-0.08,1.48-0.21,2.2c-0.7,0.12-1.42,0.19-2.16,0.19c-0.74,0-1.47-0.06-2.17-0.19
	c-0.13-0.71-0.22-1.46-0.22-2.2c0-0.85,0.11-1.63,0.28-2.32c0.67,0.19,1.37,0.29,2.11,0.29c0.73,0,1.43-0.1,2.1-0.29
	C20.1,26.11,20.2,26.88,20.2,27.74 M25.41,15.72c0.19,0.67,0.29,1.37,0.29,2.1c0,0.73-0.1,1.43-0.29,2.1
	c0.69,0.17,1.48,0.28,2.33,0.28c0.74,0,1.48-0.08,2.19-0.22c0.13-0.7,0.19-1.42,0.19-2.16c0-0.74-0.06-1.46-0.19-2.16
	c-0.71-0.14-1.45-0.22-2.19-0.22C26.89,15.45,26.11,15.55,25.41,15.72 M24.68,21.7c-0.71,1.24-1.73,2.27-2.97,2.98
	c0.37,0.61,0.84,1.23,1.45,1.83c0.52,0.52,1.1,0.99,1.7,1.39c1.19-0.83,2.23-1.87,3.06-3.05c-0.41-0.6-0.88-1.18-1.4-1.71
	C25.91,22.55,25.29,22.08,24.68,21.7 M10.24,19.93c-0.19-0.67-0.28-1.38-0.28-2.1c0-0.73,0.1-1.43,0.28-2.1
	c-0.69-0.17-1.47-0.27-2.33-0.27c-0.74,0-1.48,0.08-2.19,0.22c-0.13,0.7-0.19,1.42-0.19,2.16c0,0.74,0.07,1.46,0.19,2.16
	c0.71,0.14,1.45,0.22,2.19,0.22C8.77,20.2,9.55,20.09,10.24,19.93 M21.71,10.97c1.24,0.71,2.27,1.74,2.97,2.98
	c0.61-0.37,1.23-0.84,1.83-1.45c0.52-0.52,0.99-1.1,1.4-1.7c-0.83-1.19-1.87-2.22-3.06-3.06c-0.6,0.41-1.18,0.88-1.7,1.4
	C22.55,9.74,22.08,10.36,21.71,10.97 M15.72,10.24c0.67-0.19,1.37-0.28,2.11-0.28c0.73,0,1.43,0.1,2.1,0.28
	c0.17-0.69,0.27-1.47,0.27-2.33c0-0.74-0.08-1.48-0.21-2.19c-0.7-0.12-1.42-0.19-2.16-0.19c-0.74,0-1.47,0.06-2.17,0.19
	c-0.13,0.71-0.22,1.45-0.22,2.19C15.45,8.77,15.55,9.54,15.72,10.24 M10.98,13.95c0.7-1.24,1.73-2.27,2.97-2.98
	c-0.37-0.6-0.84-1.23-1.45-1.83c-0.52-0.52-1.1-0.99-1.7-1.4C9.61,8.57,8.57,9.6,7.74,10.8c0.41,0.6,0.87,1.18,1.4,1.7
	C9.74,13.1,10.37,13.58,10.98,13.95 M13.95,24.68c-1.24-0.71-2.27-1.74-2.97-2.98c-0.61,0.37-1.24,0.84-1.84,1.45
	c-0.52,0.52-0.99,1.1-1.4,1.71c0.83,1.19,1.87,2.22,3.06,3.05c0.6-0.41,1.18-0.87,1.7-1.39C13.11,25.91,13.58,25.28,13.95,24.68"/>
<path fill="#0268AD" d="M147.07,10.98c1.01,0,1.87,0.81,1.87,1.88c0,1.06-0.86,1.87-1.87,1.87c-1.02,0-1.87-0.81-1.87-1.87
	C145.2,11.79,146.04,10.98,147.07,10.98 M147.07,14.45c0.86,0,1.54-0.69,1.54-1.6c0-0.91-0.68-1.6-1.54-1.6
	c-0.86,0-1.54,0.7-1.54,1.6C145.53,13.76,146.21,14.45,147.07,14.45 M146.35,11.76h0.82c0.52,0,0.77,0.2,0.77,0.63
	c0,0.4-0.25,0.56-0.58,0.6l0.63,0.96h-0.36L147.04,13h-0.36v0.94h-0.33V11.76z M146.68,12.73h0.34c0.3,0,0.58-0.02,0.58-0.37
	c0-0.3-0.26-0.33-0.49-0.33h-0.44V12.73z"/>
</svg>
